<svg width="22" height="20" viewBox="0 0 22 20" fill="none" xmlns="http://www.w3.org/2000/svg">
<path d="M11.0687 19.106C17.5844 19.106 21.4385 17.0594 21.4385 13.6184C21.4385 10.7255 18.6312 9.02925 12.2666 8.08228C8.89685 7.58278 7.66248 7.03472 7.66248 6.13631C7.66248 5.28647 8.78227 4.76269 10.5427 4.76269C12.6416 4.76269 13.8396 5.48766 13.8396 6.80925H20.9541C20.9541 3.21909 16.8344 0.898499 10.3916 0.898499C4.21456 0.898499 0.396851 2.94506 0.396851 6.23691C0.396851 9.17841 3.27706 10.9995 9.19373 11.7487C12.376 12.1719 13.9125 12.8206 13.9125 13.8196C13.9125 14.6902 12.7927 15.1897 10.9541 15.1897C8.78227 15.1897 7.51143 14.4162 7.51143 13.0703H0.209351C0.209351 16.8374 4.25102 19.106 11.0687 19.106Z" fill="#5271FF"/>
</svg>
