<svg width="495" height="62" viewBox="0 0 495 62" fill="none" xmlns="http://www.w3.org/2000/svg">
<mask id="mask0_62_365" style="mask-type:luminance" maskUnits="userSpaceOnUse" x="33" y="0" width="48" height="46">
<path d="M33.0156 0.911438H80.5365V45.3333H33.0156V0.911438Z" fill="white"/>
</mask>
<g mask="url(#mask0_62_365)">
<path fill-rule="evenodd" clip-rule="evenodd" d="M64.2343 39.8698C73.4687 38.2187 80.5364 30.1614 80.5364 20.5416C80.5364 9.74477 71.6249 0.911438 60.7343 0.911438H33.0208L40.9374 8.7656H60.7343C67.2708 8.7656 72.6145 14.0625 72.6145 20.5416C72.6145 27.0208 67.2708 32.3229 60.7343 32.3229H56.776V44.3125L64.6978 39.7812C64.5416 39.8125 64.3853 39.8385 64.2343 39.8698Z" fill="#D9D9D9"/>
</g>
<mask id="mask1_62_365" style="mask-type:luminance" maskUnits="userSpaceOnUse" x="40" y="16" width="26" height="38">
<path d="M40.6667 16H66.0001V53.3802H40.6667V16Z" fill="white"/>
</mask>
<g mask="url(#mask1_62_365)">
<path fill-rule="evenodd" clip-rule="evenodd" d="M48.8594 40.1771C48.8594 34.9427 48.8594 29.7031 48.8594 24.4688H60.7344C62.9167 24.4688 64.6979 22.7031 64.6979 20.5417C64.6979 18.3854 62.9167 16.6198 60.7344 16.6198H40.9375C40.9375 24.4688 40.9375 32.3229 40.9375 40.1771V53.3802L48.8594 48.849V40.1771Z" fill="#7C309C"/>
</g>
<path d="M90.9883 17.4897H100.488C103.613 17.4897 105.176 18.8126 105.176 21.448V27.323C105.176 29.9636 103.613 31.2814 100.488 31.2814H96.5924V37.9897H90.9883V17.4897ZM99.5924 26.5939V22.1772C99.5924 21.7084 99.3216 21.4689 98.7799 21.4689H96.5924V27.2814H98.7799C99.3216 27.2814 99.5924 27.0522 99.5924 26.5939Z" fill="#7C309C"/>
<path d="M117.155 33.9897H124.134V37.9897H111.551V17.4897H123.863V21.4689H117.155V25.6564H122.926V29.6564H117.155V33.9897Z" fill="#7C309C"/>
<path d="M135.337 37.9897H130.357V17.4897H136.462L139.795 28.448L143.107 17.4897H149.212V37.9897H144.253V24.9689L141.712 33.5522H137.878L135.337 25.0314V37.9897Z" fill="#7C309C"/>
<path d="M164.824 25.1772V21.8647C164.824 21.3959 164.553 21.1564 164.011 21.1564H161.72V25.8855H164.011C164.553 25.8855 164.824 25.6511 164.824 25.1772ZM164.824 33.6147V30.2605C164.824 29.7918 164.553 29.5522 164.011 29.5522H161.72V34.323H164.011C164.553 34.323 164.824 34.0886 164.824 33.6147ZM156.22 17.4897H165.616C168.741 17.4897 170.303 18.8126 170.303 21.448V24.073C170.303 25.922 169.793 27.1251 168.782 27.6772C169.376 27.9272 169.782 28.3178 169.991 28.8439C170.199 29.3595 170.303 30.0678 170.303 30.9689V34.0314C170.303 36.672 168.741 37.9897 165.616 37.9897H156.22V17.4897Z" fill="#7C309C"/>
<path d="M187.624 37.9897L186.978 34.9272H182.061L181.395 37.9897H175.895L181.165 17.4897H187.957L193.228 37.9897H187.624ZM182.915 30.9689H186.124L184.54 23.5939L182.915 30.9689Z" fill="#7C309C"/>
<path d="M208.952 37.9897H203.348V31.3439L197.702 17.4897H203.41L206.098 26.1355L208.598 17.4897H214.285L208.952 31.2814V37.9897Z" fill="#7C309C"/>
<path d="M230.473 37.9897L229.827 34.9272H224.91L224.244 37.9897H218.744L224.014 17.4897H230.806L236.077 37.9897H230.473ZM225.764 30.9689H228.973L227.389 23.5939L225.764 30.9689Z" fill="#7C309C"/>
<path d="M247.426 30.698V37.9897H241.822V17.4897H251.322C254.447 17.4897 256.01 18.8126 256.01 21.448V26.7397C256.01 28.7709 255.093 30.0209 253.26 30.4897L257.03 37.9897H251.03L247.76 30.698H247.426ZM249.614 21.4689H247.426V26.9064H249.614C250.155 26.9064 250.426 26.672 250.426 26.198V22.1772C250.426 21.7084 250.155 21.4689 249.614 21.4689Z" fill="#7C309C"/>
<path d="M273.162 37.9897L272.516 34.9272H267.6L266.933 37.9897H261.433L266.704 17.4897H273.496L278.766 37.9897H273.162ZM268.454 30.9689H271.662L270.079 23.5939L268.454 30.9689Z" fill="#7C309C"/>
<path d="M293.866 17.4897H298.991V37.9897H294.199L289.636 27.2189V37.9897H284.511V17.4897H289.303L293.866 28.448V17.4897Z" fill="#7C309C"/>
<path d="M330.136 19.0395C329.496 20.6228 329.001 22.3051 328.657 24.0812H328.178C328.272 23.5968 328.324 23.1332 328.324 22.6853C328.324 21.7009 328.017 20.9145 327.407 20.3312C326.793 19.7478 325.918 19.4562 324.782 19.4562C323.892 19.4562 323.168 19.6801 322.616 20.1228C322.058 20.5707 321.782 21.2426 321.782 22.1437C321.782 22.9093 322.011 23.6228 322.47 24.2895C322.928 24.9562 323.616 25.7843 324.532 26.7687C325.225 27.5082 325.767 28.1228 326.157 28.6228C326.558 29.1124 326.897 29.6541 327.178 30.2478C327.454 30.8468 327.595 31.4718 327.595 32.1228C327.595 33.2374 327.241 34.1645 326.532 34.9145C325.824 35.6541 324.938 36.2009 323.886 36.5603C322.845 36.9041 321.803 37.0812 320.761 37.0812C319.704 37.0812 318.886 36.9822 318.303 36.7895C317.73 36.6124 317.126 36.3259 316.491 35.9353C316.126 35.6853 315.834 35.5603 315.616 35.5603C315.407 35.5603 315.241 35.6541 315.116 35.8312C314.991 35.9978 314.808 36.352 314.574 36.8937H314.095C314.36 36.2687 314.616 35.5187 314.866 34.6437C315.126 33.7582 315.433 32.5291 315.782 30.9562H316.261C316.121 31.5812 316.053 32.1749 316.053 32.727C316.053 33.9666 316.392 34.9093 317.074 35.5603C317.751 36.2009 318.751 36.5187 320.074 36.5187C322.199 36.5187 323.261 35.6593 323.261 33.9353C323.261 33.0082 323.043 32.1749 322.616 31.4353C322.183 30.7009 321.532 29.8624 320.657 28.9145C320.058 28.2374 319.584 27.6749 319.241 27.227C318.892 26.7687 318.595 26.2478 318.345 25.6645C318.105 25.0812 317.991 24.4666 317.991 23.8103C317.991 22.7582 318.287 21.852 318.886 21.102C319.496 20.352 320.272 19.7895 321.22 19.4145C322.162 19.0395 323.121 18.852 324.095 18.852C324.938 18.852 325.668 18.9562 326.282 19.1645C326.892 19.3624 327.459 19.6228 327.991 19.9562C328.418 20.2218 328.699 20.352 328.824 20.352C328.949 20.352 329.074 20.2478 329.199 20.0395C329.324 19.8312 329.47 19.4978 329.636 19.0395H330.136Z" fill="#5484FF"/>
<path d="M336.069 34.1019C335.955 34.5082 335.903 34.8676 335.903 35.1853C335.903 35.5342 336.017 35.7894 336.257 35.9561C336.491 36.1228 336.913 36.2165 337.528 36.2269L337.424 36.7269C336.434 36.6749 335.163 36.6436 333.611 36.6436C331.746 36.6436 330.382 36.6749 329.507 36.7269L329.611 36.2269C330.21 36.2009 330.653 36.1384 330.944 36.0394C331.236 35.9457 331.465 35.7582 331.632 35.4769C331.809 35.1853 331.986 34.7269 332.153 34.1019L335.424 21.8311C335.533 21.2894 335.59 20.904 335.59 20.6644C335.59 20.3311 335.47 20.0967 335.236 19.9561C334.996 19.8051 334.575 19.7217 333.965 19.7061L334.09 19.2061C334.924 19.2478 336.236 19.2686 338.028 19.2686C338.819 19.2686 339.408 19.2634 339.799 19.2478L341.632 19.2269C345.507 19.2269 347.444 20.4717 347.444 22.9561C347.444 24.2478 347.012 25.4092 346.153 26.4353C345.304 27.4509 344.101 28.2478 342.549 28.8311C341.007 29.4144 339.236 29.7061 337.236 29.7061L336.069 34.1019ZM337.382 29.2061H337.486C338.845 29.2061 339.965 28.8832 340.84 28.2269C341.715 27.5603 342.345 26.7165 342.736 25.6853C343.121 24.6436 343.319 23.5499 343.319 22.3936C343.319 21.4926 343.121 20.8207 342.736 20.3728C342.361 19.9301 341.757 19.7061 340.924 19.7061C340.575 19.7061 340.319 19.7634 340.153 19.8728C339.986 19.9874 339.845 20.1749 339.736 20.4353C339.637 20.7009 339.507 21.1644 339.34 21.8311L337.382 29.2061Z" fill="#5484FF"/>
<path d="M353.222 34.1019C353.107 34.5082 353.055 34.8676 353.055 35.1853C353.055 35.5342 353.17 35.7894 353.409 35.9561C353.644 36.1228 354.065 36.2165 354.68 36.2269L354.576 36.7269C353.586 36.6749 352.315 36.6436 350.763 36.6436C348.899 36.6436 347.534 36.6749 346.659 36.7269L346.763 36.2269C347.362 36.2009 347.805 36.1384 348.097 36.0394C348.388 35.9457 348.618 35.7582 348.784 35.4769C348.961 35.1853 349.138 34.7269 349.305 34.1019L352.576 21.8311C352.685 21.2894 352.743 20.904 352.743 20.6644C352.743 20.3311 352.623 20.0967 352.388 19.9561C352.149 19.8051 351.727 19.7217 351.118 19.7061L351.243 19.2061C352.076 19.2478 353.388 19.2686 355.18 19.2686C355.972 19.2686 356.56 19.2634 356.951 19.2478L358.784 19.2269C362.659 19.2269 364.597 20.4717 364.597 22.9561C364.597 24.2478 364.164 25.4092 363.305 26.4353C362.456 27.4509 361.253 28.2478 359.701 28.8311C358.159 29.4144 356.388 29.7061 354.388 29.7061L353.222 34.1019ZM354.534 29.2061H354.638C355.998 29.2061 357.118 28.8832 357.993 28.2269C358.868 27.5603 359.498 26.7165 359.888 25.6853C360.274 24.6436 360.472 23.5499 360.472 22.3936C360.472 21.4926 360.274 20.8207 359.888 20.3728C359.513 19.9301 358.909 19.7061 358.076 19.7061C357.727 19.7061 357.472 19.7634 357.305 19.8728C357.138 19.9874 356.998 20.1749 356.888 20.4353C356.789 20.7009 356.659 21.1644 356.493 21.8311L354.534 29.2061Z" fill="#5484FF"/>
</svg>
